<?xml version="1.0" ?><!DOCTYPE svg  PUBLIC '-//W3C//DTD SVG 1.1//EN'  'http://www.w3.org/Graphics/SVG/1.1/DTD/svg11.dtd'><svg enable-background="new 0 0 50 50" height="50px" id="Layer_1" version="1.1" viewBox="0 0 50 50" width="50px" xml:space="preserve" xmlns="http://www.w3.org/2000/svg" xmlns:xlink="http://www.w3.org/1999/xlink"><g><g><path d="M50,45.233C50,47.866,47.866,50,45.233,50H4.767C2.134,50,0,47.866,0,45.233V4.767     C0,2.134,2.134,0,4.767,0h40.466C47.866,0,50,2.134,50,4.767V45.233z" fill="#2899C0"/><path d="M50,45.233V29.452L36.276,15.728l-0.932,3.756l-2.462-2.431l-0.957,4.132l-2.44-2.383l-1.502,0.86     l-2.546-2.502L13.496,29.671L33.828,50h11.405C47.866,50,50,47.866,50,45.233z" opacity="0.2"/><g><path d="M26.067,22.021l-0.036-3.328c-0.018-1.628-1.192-2.306-2.611-1.507l-2.901,1.633      c-0.227,0.128-0.478,0.27-0.743,0.421h-3.797c-1.914,0-3.479,1.566-3.479,3.479v0.773v2.977v0.773      c0,1.914,1.566,3.479,3.479,3.479h3.797c0.266,0.151,0.516,0.293,0.743,0.421l2.901,1.633c1.418,0.799,2.593,0.12,2.611-1.507      l0.036-3.328C26.085,26.311,26.085,23.648,26.067,22.021z" fill="#FFFFFF"/><g><path d="M29.681,30.851c-0.066,0.325-0.369,0.533-0.668,0.465c-0.212-0.047-0.425-0.095-0.637-0.142       c-0.3-0.068-0.488-0.369-0.426-0.673c0.735-3.632,0.735-7.375,0-11.008c-0.061-0.304,0.126-0.604,0.426-0.673       c0.212-0.047,0.425-0.095,0.637-0.142c0.3-0.068,0.603,0.139,0.668,0.465C30.463,23.007,30.463,26.988,29.681,30.851z" fill="#FFFFFF"/><path d="M33.149,32.416c-0.083,0.413-0.402,0.691-0.702,0.623c-0.212-0.047-0.425-0.095-0.637-0.142       c-0.3-0.068-0.471-0.44-0.392-0.831c0.946-4.677,0.946-9.496,0-14.173c-0.079-0.391,0.092-0.763,0.392-0.831       c0.212-0.047,0.425-0.095,0.637-0.142c0.3-0.068,0.619,0.21,0.702,0.623C34.142,22.451,34.142,27.508,33.149,32.416z" fill="#FFFFFF"/><path d="M36.609,33.63c-0.097,0.48-0.428,0.812-0.728,0.744c-0.212-0.047-0.425-0.095-0.637-0.142       c-0.3-0.068-0.459-0.494-0.367-0.952c1.107-5.472,1.107-11.11,0-16.581c-0.093-0.458,0.067-0.883,0.367-0.952       c0.212-0.047,0.425-0.095,0.637-0.142c0.3-0.068,0.631,0.264,0.728,0.744C37.763,22.051,37.763,27.928,36.609,33.63z" fill="#FFFFFF"/></g></g></g></g></svg>