<?xml version="1.0" ?><!DOCTYPE svg  PUBLIC '-//W3C//DTD SVG 1.1//EN'  'http://www.w3.org/Graphics/SVG/1.1/DTD/svg11.dtd'><svg enable-background="new 0 0 50 50" height="50px" id="Layer_1" version="1.1" viewBox="0 0 50 50" width="50px" xml:space="preserve" xmlns="http://www.w3.org/2000/svg" xmlns:xlink="http://www.w3.org/1999/xlink"><g><g><path d="M50,45.233C50,47.866,47.866,50,45.233,50H4.767C2.134,50,0,47.866,0,45.233V4.767     C0,2.134,2.134,0,4.767,0h40.466C47.866,0,50,2.134,50,4.767V45.233z" fill="#2899C0"/><path d="M37.296,22.211l-3.286,2.01l-3.614-2.121l-4.786-4.767L13.511,29.688L33.828,50h11.405     C47.866,50,50,47.866,50,45.233v-10.32L37.296,22.211z" opacity="0.2"/><g><g><path d="M26.067,22.021l-0.036-3.328c-0.018-1.628-1.192-2.306-2.611-1.507l-2.901,1.633       c-0.227,0.128-0.478,0.27-0.743,0.421h-3.797c-1.914,0-3.479,1.566-3.479,3.479v0.773v2.977v0.773       c0,1.914,1.566,3.479,3.479,3.479h3.797c0.266,0.151,0.516,0.293,0.743,0.421l2.901,1.633c1.418,0.799,2.593,0.12,2.611-1.507       l0.036-3.328C26.085,26.311,26.085,23.648,26.067,22.021z" fill="#FFFFFF"/></g><g><path d="M37.237,26.673c0.326,0.326,0.326,0.855,0,1.181l-0.59,0.59c-0.326,0.326-0.855,0.326-1.181,0       l-5.117-5.117c-0.326-0.326-0.326-0.855,0-1.181l0.59-0.59c0.326-0.326,0.855-0.326,1.181,0L37.237,26.673z" fill="#FFFFFF"/><path d="M30.349,26.673c-0.326,0.326-0.326,0.855,0,1.181l0.59,0.59c0.326,0.326,0.855,0.326,1.181,0       l5.117-5.117c0.326-0.326,0.326-0.855,0-1.181l-0.59-0.59c-0.326-0.326-0.855-0.326-1.181,0L30.349,26.673z" fill="#FFFFFF"/></g></g></g></g></svg>